solid inlet
facet normal -0.7071067811865475 0.7071067811865475 0.0
outer loop
vertex -0.0001414213627576828 7.07106813788414e-05 0.0
vertex -7.07106813788414e-05 0.0001414213627576828 9.999999776482582e-06
vertex -7.07106813788414e-05 0.0001414213627576828 0.0
endloop
endfacet
facet normal -0.7071067811865475 0.7071067811865475 0.0
outer loop
vertex -7.07106813788414e-05 0.0001414213627576828 9.999999776482582e-06
vertex -0.0001414213627576828 7.07106813788414e-05 0.0
vertex -0.0001414213627576828 7.07106813788414e-05 9.999999776482582e-06
endloop
endfacet
endsolid inlet
solid outlet
facet normal 0.7071067811865475 -0.7071067811865475 0.0
outer loop
vertex 7.07106813788414e-05 -0.0001414213627576828 9.999999776482582e-06
vertex 0.0001414213627576828 -7.07106813788414e-05 0.0
vertex 0.0001414213627576828 -7.07106813788414e-05 9.999999776482582e-06
endloop
endfacet
facet normal 0.7071067811865475 -0.7071067811865475 0.0
outer loop
vertex 0.0001414213627576828 -7.07106813788414e-05 0.0
vertex 7.07106813788414e-05 -0.0001414213627576828 9.999999776482582e-06
vertex 7.07106813788414e-05 -0.0001414213627576828 0.0
endloop
endfacet
endsolid outlet
solid walls
facet normal -0.7071067811865475 -0.7071067811865475 -0.0
outer loop
vertex 7.07106813788414e-05 -0.0001414213627576828 0.0
vertex -0.0001414213627576828 7.07106813788414e-05 9.999999776482582e-06
vertex -0.0001414213627576828 7.07106813788414e-05 0.0
endloop
endfacet
facet normal -0.7071067811865475 -0.7071067811865475 0.0
outer loop
vertex -0.0001414213627576828 7.07106813788414e-05 9.999999776482582e-06
vertex 7.07106813788414e-05 -0.0001414213627576828 0.0
vertex 7.07106813788414e-05 -0.0001414213627576828 9.999999776482582e-06
endloop
endfacet
facet normal 0.7071067811865475 0.7071067811865475 -0.0
outer loop
vertex 0.0001414213627576828 -7.07106813788414e-05 9.999999776482582e-06
vertex -7.07106813788414e-05 0.0001414213627576828 0.0
vertex -7.07106813788414e-05 0.0001414213627576828 9.999999776482582e-06
endloop
endfacet
facet normal 0.7071067811865475 0.7071067811865475 0.0
outer loop
vertex -7.07106813788414e-05 0.0001414213627576828 0.0
vertex 0.0001414213627576828 -7.07106813788414e-05 9.999999776482582e-06
vertex 0.0001414213627576828 -7.07106813788414e-05 0.0
endloop
endfacet
endsolid walls
