solid original_scaled
facet normal 0.0 0.0 1.0
outer loop
vertex -0.00015000000596046448 5.0000000745058064e-05 9.999999776482582e-06
vertex 0.00015000000596046448 -5.0000000745058064e-05 9.999999776482582e-06
vertex 0.00015000000596046448 5.0000000745058064e-05 9.999999776482582e-06
endloop
endfacet
facet normal 0.0 0.0 1.0
outer loop
vertex 0.00015000000596046448 -5.0000000745058064e-05 9.999999776482582e-06
vertex -0.00015000000596046448 5.0000000745058064e-05 9.999999776482582e-06
vertex -0.00015000000596046448 -5.0000000745058064e-05 9.999999776482582e-06
endloop
endfacet
facet normal 0.0 0.0 -1.0
outer loop
vertex -0.00015000000596046448 -5.0000000745058064e-05 0.0
vertex 0.00015000000596046448 5.0000000745058064e-05 0.0
vertex 0.00015000000596046448 -5.0000000745058064e-05 0.0
endloop
endfacet
facet normal 0.0 0.0 -1.0
outer loop
vertex 0.00015000000596046448 5.0000000745058064e-05 0.0
vertex -0.00015000000596046448 -5.0000000745058064e-05 0.0
vertex -0.00015000000596046448 5.0000000745058064e-05 0.0
endloop
endfacet
facet normal 0.0 -1.0 0.0
outer loop
vertex -0.00015000000596046448 -5.0000000745058064e-05 0.0
vertex 0.00015000000596046448 -5.0000000745058064e-05 9.999999776482582e-06
vertex -0.00015000000596046448 -5.0000000745058064e-05 9.999999776482582e-06
endloop
endfacet
facet normal 0.0 -1.0 0.0
outer loop
vertex 0.00015000000596046448 -5.0000000745058064e-05 9.999999776482582e-06
vertex -0.00015000000596046448 -5.0000000745058064e-05 0.0
vertex 0.00015000000596046448 -5.0000000745058064e-05 0.0
endloop
endfacet
facet normal 1.0 0.0 0.0
outer loop
vertex 0.00015000000596046448 -5.0000000745058064e-05 9.999999776482582e-06
vertex 0.00015000000596046448 5.0000000745058064e-05 0.0
vertex 0.00015000000596046448 5.0000000745058064e-05 9.999999776482582e-06
endloop
endfacet
facet normal 1.0 0.0 0.0
outer loop
vertex 0.00015000000596046448 5.0000000745058064e-05 0.0
vertex 0.00015000000596046448 -5.0000000745058064e-05 9.999999776482582e-06
vertex 0.00015000000596046448 -5.0000000745058064e-05 0.0
endloop
endfacet
facet normal 0.0 1.0 0.0
outer loop
vertex 0.00015000000596046448 5.0000000745058064e-05 0.0
vertex -0.00015000000596046448 5.0000000745058064e-05 9.999999776482582e-06
vertex 0.00015000000596046448 5.0000000745058064e-05 9.999999776482582e-06
endloop
endfacet
facet normal 0.0 1.0 0.0
outer loop
vertex -0.00015000000596046448 5.0000000745058064e-05 9.999999776482582e-06
vertex 0.00015000000596046448 5.0000000745058064e-05 0.0
vertex -0.00015000000596046448 5.0000000745058064e-05 0.0
endloop
endfacet
facet normal -1.0 0.0 0.0
outer loop
vertex -0.00015000000596046448 -5.0000000745058064e-05 0.0
vertex -0.00015000000596046448 5.0000000745058064e-05 9.999999776482582e-06
vertex -0.00015000000596046448 5.0000000745058064e-05 0.0
endloop
endfacet
facet normal -1.0 0.0 0.0
outer loop
vertex -0.00015000000596046448 5.0000000745058064e-05 9.999999776482582e-06
vertex -0.00015000000596046448 -5.0000000745058064e-05 0.0
vertex -0.00015000000596046448 -5.0000000745058064e-05 9.999999776482582e-06
endloop
endfacet
endsolid original_scaled
